<svg width="66" height="66" viewBox="0 0 66 66" fill="none" xmlns="http://www.w3.org/2000/svg">
<path d="M11.6608 35.6772C12.0704 35.6772 12.454 35.5916 12.8115 35.4203C13.169 35.2489 13.4855 35.0031 13.7611 34.6829L14.8224 35.7331C14.45 36.1725 13.9733 36.5225 13.3924 36.7832C12.8189 37.0439 12.2268 37.1742 11.6161 37.1742C11.0277 37.1742 10.4766 37.0699 9.96265 36.8614C9.45618 36.6529 9.01675 36.3699 8.64436 36.0124C8.27197 35.6549 7.97777 35.2303 7.76179 34.7388C7.55324 34.2472 7.44897 33.7184 7.44897 33.1524C7.44897 32.5864 7.55697 32.0575 7.77296 31.566C7.98894 31.067 8.28314 30.6387 8.65554 30.2812C9.02793 29.9237 9.46736 29.6406 9.97382 29.4321C10.4877 29.2236 11.0351 29.1193 11.6161 29.1193C12.2417 29.1193 12.8487 29.2534 13.4371 29.5215C14.0254 29.7822 14.5022 30.136 14.8671 30.5828L13.7723 31.6665C13.4967 31.3239 13.1727 31.0632 12.8003 30.8845C12.4279 30.6983 12.0332 30.6052 11.6161 30.6052C11.266 30.6052 10.9346 30.6722 10.6218 30.8063C10.3164 30.9329 10.052 31.1117 9.82858 31.3425C9.60515 31.566 9.43011 31.8341 9.30351 32.1469C9.17689 32.4523 9.11358 32.7875 9.11358 33.1524C9.11358 33.5099 9.17689 33.845 9.30351 34.1578C9.43757 34.4632 9.61632 34.7276 9.83976 34.951C10.0706 35.1745 10.3387 35.3532 10.6441 35.4873C10.9569 35.6139 11.2959 35.6772 11.6608 35.6772Z" fill="white"/>
<path d="M22.5732 33.6774C22.5732 34.2063 22.4912 34.6903 22.3274 35.1298C22.1636 35.5617 21.929 35.9304 21.6236 36.2358C21.3257 36.5337 20.9607 36.7646 20.5287 36.9284C20.1042 37.0923 19.6312 37.1742 19.1099 37.1742C18.5811 37.1742 18.1007 37.0923 17.6687 36.9284C17.2442 36.7646 16.8829 36.5337 16.585 36.2358C16.2872 35.9304 16.0562 35.5617 15.8924 35.1298C15.7286 34.6978 15.6466 34.2137 15.6466 33.6774V29.2422H17.2665V33.6774C17.2665 34.2807 17.4341 34.7648 17.7693 35.1298C18.1118 35.4947 18.5625 35.6772 19.1211 35.6772C19.6797 35.6772 20.1228 35.4947 20.4505 35.1298C20.7857 34.7648 20.9532 34.2807 20.9532 33.6774V29.2422H22.5732V33.6774Z" fill="white"/>
<path d="M23.3619 30.6722V29.2422H30.2438V30.6722H27.6184V37.0625H25.9985V30.6722H23.3619Z" fill="white"/>
<path d="M30.7589 30.6722V29.2422H37.6408V30.6722H35.0154V37.0625H33.3955V30.6722H30.7589Z" fill="white"/>
<path d="M38.5496 37.0625V29.2422H44.56V30.6498H40.1695V32.4373H43.063V33.8003H40.1695V35.6548H44.6047V37.0625H38.5496Z" fill="white"/>
<path d="M45.7502 37.0625V29.2422H49.571C49.9658 29.2422 50.3271 29.3018 50.6547 29.4209C50.9899 29.5401 51.2767 29.7077 51.5149 29.9237C51.7533 30.1322 51.9395 30.3855 52.0735 30.6834C52.2076 30.9812 52.2746 31.309 52.2746 31.6665C52.2746 32.158 52.1332 32.5975 51.8501 32.9848C51.5746 33.372 51.2059 33.6588 50.7441 33.845L52.4757 37.0625H50.6659L49.1353 34.0684H47.3702V37.0625H45.7502ZM49.4258 30.6387H47.3702V32.739H49.4258C49.7908 32.739 50.0813 32.6422 50.2972 32.4485C50.5206 32.2548 50.6324 32.0016 50.6324 31.6888C50.6324 31.376 50.5206 31.1228 50.2972 30.9291C50.0813 30.7355 49.7908 30.6387 49.4258 30.6387Z" fill="white"/>
<path d="M52.7496 35.8224L53.6769 34.6606C54.1312 35.0553 54.5669 35.3458 54.984 35.532C55.4085 35.7107 55.8554 35.8001 56.3246 35.8001C56.8088 35.8001 57.196 35.7107 57.4865 35.532C57.777 35.3532 57.9222 35.1149 57.9222 34.817C57.9222 34.5489 57.8217 34.3403 57.6206 34.1914C57.4269 34.0425 57.0992 33.9306 56.6374 33.8562L55.0846 33.5881C54.4142 33.4764 53.9041 33.2417 53.554 32.8842C53.2114 32.5267 53.0401 32.0649 53.0401 31.4989C53.0401 30.769 53.3156 30.1918 53.8668 29.7673C54.4254 29.3428 55.1777 29.1305 56.1235 29.1305C56.6895 29.1305 57.2593 29.2273 57.8328 29.421C58.4138 29.6146 58.9203 29.8828 59.3522 30.2253L58.4808 31.4319C58.0637 31.1117 57.6541 30.8771 57.2519 30.7281C56.8497 30.5717 56.4363 30.4935 56.0118 30.4935C55.5799 30.4935 55.2335 30.5754 54.9728 30.7392C54.7121 30.8956 54.5818 31.1079 54.5818 31.376C54.5818 31.6144 54.6674 31.8006 54.8388 31.9346C55.0101 32.0687 55.2968 32.1655 55.699 32.2251L57.1737 32.4709C57.9483 32.5975 58.5292 32.847 58.9165 33.2194C59.3113 33.5844 59.5086 34.0685 59.5086 34.6717C59.5086 35.4314 59.207 36.0385 58.6037 36.4928C58.0078 36.947 57.211 37.1742 56.2129 37.1742C55.5873 37.1742 54.9691 37.0551 54.3584 36.8167C53.7551 36.5784 53.2189 36.247 52.7496 35.8224Z" fill="white"/>
<path fill-rule="evenodd" clip-rule="evenodd" d="M33.453 63.4688C50.2804 63.4688 63.9218 49.8274 63.9218 33C63.9218 16.1726 50.2804 2.53125 33.453 2.53125C16.6256 2.53125 2.98425 16.1726 2.98425 33C2.98425 49.8274 16.6256 63.4688 33.453 63.4688ZM33.453 65.5C51.4022 65.5 65.953 50.9492 65.953 33C65.953 15.0508 51.4022 0.5 33.453 0.5C15.5038 0.5 0.953003 15.0508 0.953003 33C0.953003 50.9492 15.5038 65.5 33.453 65.5Z" fill="white"/>
<path d="M2.98425 22.8438H63.9218V24.875H2.98425V22.8438Z" fill="white"/>
<path d="M2.98425 41.125H63.9218V43.1562H2.98425V41.125Z" fill="white"/>
<path d="M18.2186 47.2188V60.3735H16.1874V47.2188H18.2186Z" fill="white"/>
<path d="M14.1561 47.2188V57.375H12.1249V47.2188H14.1561Z" fill="white"/>
<path d="M10.0936 47.2188V53.3125H8.06238V47.2188H10.0936Z" fill="white"/>
<path d="M54.7811 47.2188V57.375H52.7499V47.2188H54.7811Z" fill="white"/>
<path d="M58.8436 47.2188V53.3125H56.8124V47.2188H58.8436Z" fill="white"/>
<path d="M22.2811 47.2188V62.8401H20.2499V47.2188H22.2811Z" fill="white"/>
<path d="M26.3436 47.2188V63.4688H24.3124V47.2188H26.3436Z" fill="white"/>
<path d="M30.4061 47.2188V64.4844H28.3749V47.2188H30.4061Z" fill="white"/>
<path d="M34.4686 47.2188V64.4844H32.4374V47.2188H34.4686Z" fill="white"/>
<path d="M38.5311 47.2188V64.4844H36.4999V47.2188H38.5311Z" fill="white"/>
<path d="M42.5936 47.2188V63.4688H40.5624V47.2188H42.5936Z" fill="white"/>
<path d="M46.6561 47.2188V62.8401H44.6249V47.2188H46.6561Z" fill="white"/>
<path d="M50.7186 47.2188V59.4062H48.6874V47.2188H50.7186Z" fill="white"/>
<path d="M32.4374 7.60938H34.4686V23.8594H32.4374V7.60938Z" fill="white"/>
<path d="M33.453 5.57812L34.8071 6.93229L30.7446 10.9948L29.3905 9.6406L33.453 5.57812Z" fill="white"/>
<path d="M37.5155 9.6406L36.1613 10.9947L32.0989 6.93228L33.453 5.57812L37.5155 9.6406Z" fill="white"/>
<path d="M33.453 10.6562L34.8071 12.0104L30.7446 16.0729L29.3905 14.7188L33.453 10.6562Z" fill="white"/>
<path d="M37.5155 14.7188L36.1613 16.0729L32.0989 12.0104L33.453 10.6562L37.5155 14.7188Z" fill="white"/>
<path d="M33.453 15.7344L34.8071 17.0885L30.7446 21.151L29.3905 19.7969L33.453 15.7344Z" fill="white"/>
<path d="M37.5155 19.7969L36.1613 21.151L32.0989 17.0885L33.453 15.7344L37.5155 19.7969Z" fill="white"/>
<path d="M21.2655 11.6719H23.2968V23.8594H21.2655V11.6719Z" fill="white"/>
<path d="M22.2811 10.6562L23.6353 12.0104L19.5728 16.0729L18.2186 14.7188L22.2811 10.6562Z" fill="white"/>
<path d="M26.3436 14.7188L24.9894 16.0729L20.927 12.0104L22.2811 10.6562L26.3436 14.7188Z" fill="white"/>
<path d="M22.2811 15.7344L23.6353 17.0885L19.5728 21.151L18.2186 19.7969L22.2811 15.7344Z" fill="white"/>
<path d="M26.3436 19.7969L24.9894 21.151L20.927 17.0885L22.2811 15.7344L26.3436 19.7969Z" fill="white"/>
<path d="M43.6093 11.6719H45.6405V23.8594H43.6093V11.6719Z" fill="white"/>
<path d="M44.6249 10.6562L45.979 12.0104L41.9165 16.0729L40.5624 14.7188L44.6249 10.6562Z" fill="white"/>
<path d="M48.6874 14.7188L47.3332 16.0729L43.2708 12.0104L44.6249 10.6562L48.6874 14.7188Z" fill="white"/>
<path d="M44.6249 15.7344L45.979 17.0885L41.9165 21.151L40.5624 19.7969L44.6249 15.7344Z" fill="white"/>
<path d="M48.6874 19.7969L47.3332 21.151L43.2708 17.0885L44.6249 15.7344L48.6874 19.7969Z" fill="white"/>
</svg>
