<svg width="65" height="65" viewBox="0 0 65 65" fill="none" xmlns="http://www.w3.org/2000/svg">
<path d="M10.7077 35.1773C11.1173 35.1773 11.5009 35.0917 11.8584 34.9203C12.2159 34.749 12.5325 34.5032 12.808 34.183L13.8693 35.2331C13.4969 35.6726 13.0203 36.0226 12.4393 36.2833C11.8658 36.544 11.2737 36.6743 10.663 36.6743C10.0747 36.6743 9.52349 36.57 9.00958 36.3615C8.50312 36.153 8.06369 35.8699 7.6913 35.5124C7.3189 35.1549 7.02471 34.7304 6.80872 34.2388C6.60017 33.7473 6.49591 33.2184 6.49591 32.6524C6.49591 32.0864 6.6039 31.5576 6.8199 31.066C7.03588 30.567 7.33007 30.1388 7.70247 29.7813C8.07486 29.4238 8.51429 29.1407 9.02075 28.9322C9.53466 28.7237 10.0821 28.6194 10.663 28.6194C11.2886 28.6194 11.8957 28.7534 12.484 29.0216C13.0724 29.2823 13.5491 29.636 13.914 30.0829L12.8192 31.1666C12.5437 30.824 12.2197 30.5633 11.8472 30.3845C11.4748 30.1984 11.0801 30.1052 10.663 30.1052C10.3129 30.1052 9.98154 30.1723 9.66872 30.3063C9.36332 30.433 9.09896 30.6117 8.87552 30.8426C8.65208 31.066 8.47705 31.3342 8.35044 31.647C8.22382 31.9524 8.16052 32.2875 8.16052 32.6524C8.16052 33.0099 8.22382 33.3451 8.35044 33.6579C8.4845 33.9633 8.66325 34.2277 8.88669 34.4511C9.11757 34.6745 9.38567 34.8533 9.69107 34.9874C10.0039 35.114 10.3428 35.1773 10.7077 35.1773Z" fill="#C5B358"/>
<path d="M21.6201 33.1774C21.6201 33.7063 21.5382 34.1903 21.3744 34.6298C21.2105 35.0617 20.9759 35.4304 20.6705 35.7358C20.3726 36.0337 20.0076 36.2646 19.5757 36.4284C19.1511 36.5923 18.6782 36.6742 18.1569 36.6742C17.628 36.6742 17.1476 36.5923 16.7157 36.4284C16.2912 36.2646 15.9299 36.0337 15.632 35.7358C15.3341 35.4304 15.1032 35.0617 14.9394 34.6298C14.7755 34.1978 14.6936 33.7137 14.6936 33.1774V28.7422H16.3135V33.1774C16.3135 33.7807 16.4811 34.2648 16.8162 34.6298C17.1588 34.9947 17.6094 35.1772 18.168 35.1772C18.7266 35.1772 19.1697 34.9947 19.4975 34.6298C19.8326 34.2648 20.0002 33.7807 20.0002 33.1774V28.7422H21.6201V33.1774Z" fill="#C5B358"/>
<path d="M22.409 30.1722V28.7422H29.2908V30.1722H26.6655V36.5625H25.0455V30.1722H22.409Z" fill="#C5B358"/>
<path d="M29.806 30.1722V28.7422H36.6879V30.1722H34.0625V36.5625H32.4425V30.1722H29.806Z" fill="#C5B358"/>
<path d="M37.5966 36.5625V28.7422H43.6071V30.1498H39.2165V31.9373H42.1101V33.3003H39.2165V35.1548H43.6518V36.5625H37.5966Z" fill="#C5B358"/>
<path d="M44.7972 36.5625V28.7422H48.618C49.0128 28.7422 49.374 28.8018 49.7017 28.9209C50.0368 29.0401 50.3236 29.2077 50.5619 29.4237C50.8003 29.6322 50.9864 29.8855 51.1205 30.1834C51.2546 30.4812 51.3216 30.809 51.3216 31.1665C51.3216 31.658 51.1801 32.0975 50.8971 32.4848C50.6215 32.872 50.2529 33.1588 49.791 33.345L51.5227 36.5625H49.7128L48.1823 33.5684H46.4171V36.5625H44.7972ZM48.4728 30.1387H46.4171V32.239H48.4728C48.8378 32.239 49.1282 32.1422 49.3442 31.9485C49.5676 31.7548 49.6793 31.5016 49.6793 31.1888C49.6793 30.876 49.5676 30.6228 49.3442 30.4291C49.1282 30.2355 48.8378 30.1387 48.4728 30.1387Z" fill="#C5B358"/>
<path d="M51.7966 35.3223L52.7239 34.1604C53.1782 34.5552 53.6139 34.8457 54.031 35.0319C54.4555 35.2106 54.9024 35.3 55.3716 35.3C55.8558 35.3 56.243 35.2106 56.5335 35.0319C56.824 34.8531 56.9692 34.6147 56.9692 34.3169C56.9692 34.0487 56.8687 33.8402 56.6676 33.6912C56.4739 33.5423 56.1462 33.4305 55.6844 33.3561L54.1316 33.0879C53.4612 32.9762 52.9511 32.7416 52.601 32.3841C52.2584 32.0266 52.0871 31.5648 52.0871 30.9988C52.0871 30.2689 52.3626 29.6917 52.9138 29.2672C53.4724 28.8426 54.2247 28.6304 55.1705 28.6304C55.7365 28.6304 56.3063 28.7272 56.8798 28.9208C57.4608 29.1145 57.9673 29.3826 58.3992 29.7252L57.5278 30.9318C57.1107 30.6116 56.7011 30.3769 56.2989 30.2279C55.8967 30.0715 55.4833 29.9933 55.0588 29.9933C54.6269 29.9933 54.2805 30.0753 54.0198 30.2391C53.7591 30.3955 53.6288 30.6078 53.6288 30.8759C53.6288 31.1143 53.7144 31.3004 53.8858 31.4345C54.0571 31.5686 54.3438 31.6654 54.746 31.725L56.2207 31.9708C56.9953 32.0974 57.5762 32.3468 57.9635 32.7193C58.3583 33.0843 58.5556 33.5683 58.5556 34.1716C58.5556 34.9313 58.254 35.5383 57.6507 35.9926C57.0548 36.4469 56.258 36.6741 55.2599 36.6741C54.6343 36.6741 54.0161 36.555 53.4054 36.3166C52.8021 36.0783 52.2658 35.7469 51.7966 35.3223Z" fill="#C5B358"/>
<path fill-rule="evenodd" clip-rule="evenodd" d="M32.5 62.9688C49.3274 62.9688 62.9688 49.3274 62.9688 32.5C62.9688 15.6726 49.3274 2.03125 32.5 2.03125C15.6726 2.03125 2.03125 15.6726 2.03125 32.5C2.03125 49.3274 15.6726 62.9688 32.5 62.9688ZM32.5 65C50.4492 65 65 50.4492 65 32.5C65 14.5508 50.4492 0 32.5 0C14.5508 0 0 14.5508 0 32.5C0 50.4492 14.5508 65 32.5 65Z" fill="#C5B358"/>
<path d="M2.03125 22.3438H62.9688V24.375H2.03125V22.3438Z" fill="#C5B358"/>
<path d="M2.03125 40.625H62.9688V42.6562H2.03125V40.625Z" fill="#C5B358"/>
<path d="M17.2656 46.7188V59.8735H15.2344V46.7188H17.2656Z" fill="#C5B358"/>
<path d="M13.2031 46.7188V56.875H11.1719V46.7188H13.2031Z" fill="#C5B358"/>
<path d="M9.14062 46.7188V52.8125H7.10938V46.7188H9.14062Z" fill="#C5B358"/>
<path d="M53.8281 46.7188V56.875H51.7969V46.7188H53.8281Z" fill="#C5B358"/>
<path d="M57.8906 46.7188V52.8125H55.8594V46.7188H57.8906Z" fill="#C5B358"/>
<path d="M21.3281 46.7188V62.3401H19.2969V46.7188H21.3281Z" fill="#C5B358"/>
<path d="M25.3906 46.7188V62.9688H23.3594V46.7188H25.3906Z" fill="#C5B358"/>
<path d="M29.4531 46.7188V63.9844H27.4219V46.7188H29.4531Z" fill="#C5B358"/>
<path d="M33.5156 46.7188V63.9844H31.4844V46.7188H33.5156Z" fill="#C5B358"/>
<path d="M37.5781 46.7188V63.9844H35.5469V46.7188H37.5781Z" fill="#C5B358"/>
<path d="M41.6406 46.7188V62.9688H39.6094V46.7188H41.6406Z" fill="#C5B358"/>
<path d="M45.7031 46.7188V62.3401H43.6719V46.7188H45.7031Z" fill="#C5B358"/>
<path d="M49.7656 46.7188V58.9062H47.7344V46.7188H49.7656Z" fill="#C5B358"/>
<path d="M31.4844 7.10938H33.5156V23.3594H31.4844V7.10938Z" fill="#C5B358"/>
<path d="M32.5 5.07812L33.8541 6.43229L29.7916 10.4948L28.4375 9.1406L32.5 5.07812Z" fill="#C5B358"/>
<path d="M36.5625 9.1406L35.2083 10.4947L31.1459 6.43228L32.5 5.07812L36.5625 9.1406Z" fill="#C5B358"/>
<path d="M32.5 10.1562L33.8541 11.5104L29.7916 15.5729L28.4375 14.2188L32.5 10.1562Z" fill="#C5B358"/>
<path d="M36.5625 14.2188L35.2083 15.5729L31.1459 11.5104L32.5 10.1562L36.5625 14.2188Z" fill="#C5B358"/>
<path d="M32.5 15.2344L33.8541 16.5885L29.7916 20.651L28.4375 19.2969L32.5 15.2344Z" fill="#C5B358"/>
<path d="M36.5625 19.2969L35.2083 20.651L31.1459 16.5885L32.5 15.2344L36.5625 19.2969Z" fill="#C5B358"/>
<path d="M20.3125 11.1719H22.3438V23.3594H20.3125V11.1719Z" fill="#C5B358"/>
<path d="M21.3281 10.1562L22.6823 11.5104L18.6198 15.5729L17.2656 14.2188L21.3281 10.1562Z" fill="#C5B358"/>
<path d="M25.3907 14.2188L24.0364 15.5729L19.974 11.5104L21.3282 10.1562L25.3907 14.2188Z" fill="#C5B358"/>
<path d="M21.3281 15.2344L22.6823 16.5885L18.6198 20.651L17.2656 19.2969L21.3281 15.2344Z" fill="#C5B358"/>
<path d="M25.3907 19.2969L24.0364 20.651L19.974 16.5885L21.3282 15.2344L25.3907 19.2969Z" fill="#C5B358"/>
<path d="M42.6562 11.1719H44.6875V23.3594H42.6562V11.1719Z" fill="#C5B358"/>
<path d="M43.6719 10.1562L45.026 11.5104L40.9635 15.5729L39.6094 14.2188L43.6719 10.1562Z" fill="#C5B358"/>
<path d="M47.7344 14.2188L46.3802 15.5729L42.3178 11.5104L43.6719 10.1562L47.7344 14.2188Z" fill="#C5B358"/>
<path d="M43.6719 15.2344L45.026 16.5885L40.9635 20.651L39.6094 19.2969L43.6719 15.2344Z" fill="#C5B358"/>
<path d="M47.7344 19.2969L46.3802 20.651L42.3178 16.5885L43.6719 15.2344L47.7344 19.2969Z" fill="#C5B358"/>
</svg>
