<svg width="47" height="51" viewBox="0 0 47 51" fill="none" xmlns="http://www.w3.org/2000/svg">
<path d="M41.4499 35.3796C38.5153 32.8379 35.3846 31.2739 32.4496 33.8156L30.689 35.3796C29.3193 36.5526 26.9714 41.8315 17.5799 31.0782C8.18839 20.3252 13.8624 18.5656 15.0363 17.3926L16.7973 15.8282C19.7321 13.2866 18.5582 9.96292 16.4059 6.63926L15.0363 4.68425C13.0798 1.36059 10.7319 -0.79007 7.60142 1.75159L6.03616 3.12025C4.66656 4.09759 0.949099 7.22592 0.166467 13.0912C-0.811815 20.1296 2.51433 28.3412 10.3406 37.3345C18.1669 46.3282 25.7975 50.8249 32.841 50.6295C38.9063 50.6295 42.4283 47.3059 43.6023 46.1325L45.1676 44.7642C48.1023 42.2225 46.3413 39.4852 43.2109 36.9436L41.4499 35.3796Z" fill="white"/>
</svg>
