<svg width="47" height="50" viewBox="0 0 47 50" fill="none" xmlns="http://www.w3.org/2000/svg">
<path d="M41.4499 34.7439C38.5153 32.2023 35.3846 30.6383 32.4496 33.1799L30.689 34.7439C29.3193 35.9169 26.9714 41.1959 17.5799 30.4426C8.18839 19.6896 13.8624 17.9299 15.0363 16.7569L16.7973 15.1926C19.7321 12.651 18.5582 9.3273 16.4059 6.00364L15.0363 4.04863C13.0798 0.724971 10.7319 -1.42569 7.60142 1.11597L6.03616 2.48463C4.66656 3.46197 0.949099 6.5903 0.166467 12.4556C-0.811815 19.494 2.51433 27.7056 10.3406 36.6989C18.1669 45.6926 25.7975 50.1892 32.841 49.9939C38.9063 49.9939 42.4283 46.6702 43.6023 45.4969L45.1676 44.1286C48.1023 41.5869 46.3413 38.8496 43.2109 36.3079L41.4499 34.7439Z" fill="#C5B358"/>
</svg>
