<svg width="17" height="18" viewBox="0 0 17 18" fill="none" xmlns="http://www.w3.org/2000/svg">
<path d="M14.5832 12.1637C13.5854 11.2995 12.521 10.7678 11.5231 11.6319L10.9245 12.1637C10.4588 12.5625 9.66051 14.3574 6.46739 10.7012C3.27429 7.04523 5.20346 6.44695 5.60259 6.04813L6.20131 5.51626C7.19915 4.65209 6.80001 3.52205 6.06826 2.39201L5.60259 1.7273C4.93736 0.597259 4.13909 -0.133965 3.07472 0.7302L2.54253 1.19554C2.07687 1.52784 0.812928 2.59147 0.546833 4.58568C0.214217 6.97871 1.34511 9.77067 4.00603 12.8284C6.66697 15.8862 9.26137 17.4151 11.6562 17.3487C13.7184 17.3487 14.9158 16.2187 15.315 15.8197L15.8472 15.3545C16.845 14.4903 16.2463 13.5596 15.182 12.6955L14.5832 12.1637Z" fill="#2C3035"/>
</svg>
